<svg width="286" height="266" viewBox="0 0 286 266" xmlns="http://www.w3.org/2000/svg" xmlns:xlink="http://www.w3.org/1999/xlink" xml:space="preserve" overflow="hidden"><defs><clipPath id="clip0"><rect x="450" y="750" width="286" height="266"/></clipPath></defs><g clip-path="url(#clip0)" transform="translate(-450 -750)"><path d="M0 0C94.38 0 188.76 0 286 0 286 86.5281 286 173.056 286 262.206 191.62 262.206 97.24 262.206 0 262.206 0 175.678 0 89.1501 0 0Z" fill="#FCFDFD" transform="matrix(1 0 0 1.01447 450 750)"/><path d="M0 0C0.55454 0.0871072 1.10909 0.174214 1.68043 0.263961 9.68179 1.69783 19.3459 3.56678 26.3589 7.8296 27.5442 8.53222 28.7427 9.05173 30.0121 9.5809 39.1132 13.6624 47.3663 20.0012 54.7255 26.6489 55.0157 26.91 55.3065 27.1711 55.6058 27.4401 58.8361 30.3552 61.9483 33.2777 64.7188 36.6423 64.8411 36.7711 64.8411 36.7711 65.4607 37.423 66.1464 38.1591 66.1464 38.1591 67.0982 39.4975 67.022 41.0269 66.7827 41.7016 65.7429 42.8379 65.395 43.1195 65.0476 43.401 64.6893 43.6911 64.34 43.9789 63.9912 44.2665 63.6314 44.5629 63.3621 44.7758 63.0927 44.9887 62.8153 45.208 61.0807 43.5034 59.4166 41.7433 57.762 39.9608 40.9641 21.904 17.3899 8.30185-7.71334 7.08723-8.78463 7.06063-9.85491 7.04735-10.9265 7.04145-11.3215 7.03874-11.7165 7.03603-12.1234 7.03322-12.956 7.02875-13.7887 7.02561-14.6213 7.0238-15.8628 7.01923-17.1039 7.00443-18.3453 6.98939-23.9158 6.95489-29.2809 7.4133-34.7388 8.56572-34.8958 8.72276-35.0528 8.8798-35.2146 9.0416-35.846 9.17608-36.4816 9.291-37.1181 9.3985-50.355 11.9859-62.8243 17.9008-73.7604 25.6972-74.242 26.0382-74.7236 26.3793-75.2194 26.7307-83.7361 32.9453-91.2649 40.0846-97.5541 48.5391-97.7563 48.8075-97.9586 49.0764-98.1675 49.3528-105.961 59.7355-112.169 71.6309-115.8 84.1125-116.178 85.4026-116.61 86.6723-117.035 87.9471-121.835 103.598-121.773 120.285-119.575 136.358-119.444 137.527-119.444 137.527-119.444 139.431-119.012 139.397-118.579 139.362-118.134 139.327-102.617 138.181-89.6693 141.223-76.086 148.95-75.188 149.424-75.188 149.424-73.7604 149.9-72.8924 149.53-72.8924 149.53-72.0054 148.978-71.4852 148.654-70.9651 148.33-70.4293 147.997-70.5202 147.74-70.6111 147.483-70.7048 147.219-71.6185 144.571-72.3237 141.933-72.8981 139.193-72.9823 138.817-73.0666 138.441-73.1537 138.053-73.7052 135.45-73.8375 133.05-73.7604 130.389-74.2191 130.543-74.6779 130.696-75.1509 130.854-80.9742 132.507-87.2919 131.635-92.5331 128.809-95.9147 126.764-98.4682 123.872-99.7064 120.074-100.525 116.081-100.27 112.608-98.2417 109.055-97.308 107.654-96.3154 106.407-95.1747 105.168-95.938 103.442-97.0101 102.092-98.1784 100.618-102.552 94.9106-104.923 88.1318-104.216 80.8985-103.295 75.6663-100.396 71.6128-96.1264 68.5258-89.7355 64.6155-82.1348 65.0472-75.0662 66.7327-70.5073 68.0085-66.0627 69.765-61.6389 71.4429-60.4359 71.8569-60.4359 71.8569-59.4842 71.8569-59.4423 71.5956-59.4004 71.3339-59.3576 71.0646-58.679 67.2619-57.4598 63.6647-56.2126 60.0196-56.0037 59.4019-55.7947 58.7842-55.5863 58.166-55.178 56.9573-54.7673 55.7495-54.3557 54.5418-53.8142 52.9409-53.2893 51.3358-52.7663 49.7288-50.2875 42.2925-46.4072 35.9049-39.4975 31.8835-36.8239 30.5979-34.4175 30.2079-31.4671 30.2477-31.0908 30.2513-30.7144 30.2549-30.3267 30.2586-26.1854 30.3752-23.4003 31.6875-19.9569 33.906-18.1299 35.0073-16.7529 35.7039-14.5978 35.5623-12.0902 34.8777-9.84211 33.5573-7.55264 32.3501-3.25055 30.1027 1.16146 29.1228 5.91868 30.4856 12.7396 33.0691 17.0308 37.9999 20.0593 44.4777 21.787 48.5467 23.1619 52.7101 24.5095 56.9164 24.899 58.1313 25.2927 59.3452 25.6869 60.5587 25.9366 61.332 26.186 62.1053 26.4352 62.8786 26.4939 63.0594 26.4939 63.0594 26.7911 63.9764 27.6007 66.5119 27.6007 66.5119 27.6007 67.574 27.8754 67.4832 28.1502 67.3923 28.4333 67.2985 31.6348 66.2444 34.8479 65.2323 38.0699 64.2429 38.4323 64.1292 38.7946 64.0155 39.168 63.8984 43.5582 62.5526 47.7544 62.1657 52.3461 62.131 52.8462 62.1262 53.3464 62.1215 53.8617 62.1162 56.9406 62.1515 59.4951 62.5878 62.3394 63.7671 62.6783 63.9051 63.0176 64.0426 63.3668 64.1849 67.901 66.1136 70.4983 69.803 72.3328 74.2363 74.3757 80.365 72.7325 87.2129 69.9534 92.7953 67.8829 96.6409 65.1656 99.951 62.3394 103.265 62.614 103.381 62.8891 103.498 63.1722 103.618 65.9132 105.15 68.3773 108.325 69.656 111.185 70.652 114.939 70.3855 119.107 68.7414 122.627 65.9608 127.052 61.6271 129.984 56.6289 131.341 55.2285 131.483 53.8422 131.499 52.4356 131.49 52.2462 131.49 52.2462 131.49 51.2887 131.488 48.5367 131.443 46.3156 131.04 43.7804 129.913 43.8024 130.198 43.8245 130.482 43.8473 130.774 44.0659 136.029 42.6444 141.16 40.9251 146.093 41.2135 146.215 41.5017 146.337 41.7988 146.463 46.7288 148.716 50.7714 152.181 53.2978 157.038 53.2978 157.352 53.2978 157.666 53.2978 157.99 53.4672 157.818 53.4672 157.818 54.3257 156.945 60.3384 151.007 67.4427 146.042 76.1992 146.004 77.1315 146.027 78.0632 146.054 78.995 146.093 79.0416 145.841 79.0416 145.841 79.2777 144.563 80.2756 139.313 81.4676 134.121 82.7425 128.932 83.9113 124.173 85.0548 119.413 86.1036 114.626 87.4222 108.607 88.8032 102.604 90.1942 96.6018 90.3784 95.8062 90.5625 95.011 90.7467 94.2153 90.8381 93.8213 90.9294 93.4268 91.0237 93.0204 91.6499 90.3122 92.2681 87.6026 92.881 84.8916 93.7923 80.8609 94.7145 76.8336 95.6506 72.8086 95.7657 72.3104 95.8809 71.8117 95.9994 71.2982 98.0699 62.4517 101.195 56.3791 108.975 51.3943 110.021 50.8385 111.071 50.2936 112.128 49.7583 117.127 47.1282 119.899 43.8265 121.824 38.5458 121.927 38.2758 121.927 38.2758 122.448 36.9099 123.43 31.8221 122.818 27.075 120.154 22.5835 117.646 19.1014 114.063 16.4744 109.927 15.228 108.365 15.0208 106.831 15.0011 105.258 15.0198 105.046 15.0216 105.046 15.0216 103.977 15.0307 98.5529 15.1672 94.8502 17.1365 90.9513 20.8325 86.4596 25.5664 85.2475 31.2188 84.9729 37.5048 84.7188 43.144 83.8775 49.1701 79.8592 53.4539 77.1686 55.9104 75.2094 57.3599 71.5038 57.2928 69.6722 56.9725 68.8399 56.0546 67.574 54.7255 66.746 53.0694 66.8193 51.2973 67.0982 49.4908 68.1927 48.0528 69.1501 47.2908 70.7267 46.4274 72.3047 45.3892 72.6012 44.6122 73.2845 42.8286 73.5601 40.8324 73.66 38.8325 73.7604 36.8207 74.0464 31.2149 74.7559 25.9772 77.3589 20.9384 77.4413 20.7783 77.4413 20.7783 77.8567 19.968 81.678 12.8089 87.5921 7.649 95.1747 4.75874 95.5211 4.60722 95.8681 4.4557 96.225 4.29959 103.58 1.50437 111.547 3.42747 118.498 6.30347 124.954 9.40735 129.96 15.6315 132.441 22.2471 132.723 23.0755 132.99 23.9087 133.245 24.7454 133.414 25.2632 133.584 25.7809 133.759 26.3143 135.544 33.5114 133.975 41.489 130.244 47.7972 126.588 53.3164 122.518 56.8169 116.786 60.0067 115.426 60.7643 114.077 61.5224 112.753 62.3394 112.443 62.526 112.133 62.7125 111.814 62.9048 108.838 65.6491 107.951 69.0883 107.131 72.9276 106.889 73.9979 106.646 75.0681 106.402 76.1379 106.341 76.4134 106.341 76.4134 106.027 77.8087 105.41 80.4864 104.719 83.1441 104.038 85.8057 102.647 91.2954 101.408 96.8098 100.199 102.341 99.0164 107.742 97.7344 113.108 96.3663 118.464 94.8544 124.396 93.5106 130.359 92.2191 136.343 91.2649 140.741 90.189 145.086 88.9883 149.424 89.3529 149.562 89.7169 149.7 90.0924 149.843 93.7504 151.373 95.8209 154.545 97.5541 157.99 98.7818 161.185 99.2168 164.129 99.1601 167.537 99.1573 167.754 99.1573 167.754 99.1435 168.852 98.8256 182.247 93.1346 194.31 84.2296 204.15 83.6424 204.832 83.0571 205.516 82.4746 206.202 82.1115 206.624 81.7484 207.046 81.3744 207.481 80.3879 205.508 81.5252 202.757 81.9397 200.67 81.9892 200.398 81.9892 200.398 82.2414 199.024 82.3447 198.499 82.4484 197.974 82.5545 197.434 82.6473 196.954 82.7401 196.474 82.8358 195.979 83.3502 194.412 84.104 193.489 85.1814 192.253 88.4211 187.139 90.0514 181.953 91.3677 176.073 91.224 176.139 91.224 176.139 90.4978 176.473 90.1176 176.645 89.7369 176.817 89.3453 176.995 88.9698 177.166 88.5943 177.338 88.2074 177.514 86.4781 178.227 85.0277 178.513 83.1589 178.482 82.8643 178.477 82.8643 178.477 81.3744 178.453 81.343 178.694 81.343 178.694 81.1831 179.914 80.918 181.657 80.5654 183.334 80.1533 185.046 80.001 185.683 79.8487 186.321 79.6964 186.959 79.616 187.292 79.5361 187.626 79.4533 187.97 78.0376 193.863 76.6737 199.766 75.3679 205.684 75.1295 206.764 74.8896 207.843 74.6493 208.922 73.916 212.22 73.1927 215.518 72.4946 218.824 72.2523 219.94 72.0101 221.057 71.7674 222.173 71.6661 222.674 71.5642 223.174 71.46 223.69 70.8362 226.521 70.1809 228.315 68.0499 230.323 66.2825 230.912 64.6488 231.128 62.8153 230.799 61.5347 229.763 60.6953 228.938 59.9601 227.468 59.7792 224.173 60.2813 221.442 61.1497 218.277 62.4422 213.354 63.5762 208.409 64.6593 203.436 66.0512 197.062 67.555 190.725 69.1853 184.409 69.8611 181.771 70.5254 179.131 71.0931 176.467 71.1807 176.064 71.2682 175.66 71.3582 175.245 71.3872 173.878 71.0051 173.413 70.1019 172.415 69.834 172.155 69.566 171.896 69.2896 171.629 67.3437 169.616 67.0087 167.091 66.9197 164.385 67.0496 160.453 68.8165 157.543 71.381 154.659 72.003 154.167 72.6345 153.686 73.2845 153.231 65.7995 154.559 60.1366 158.793 55.7524 164.883 55.2741 165.57 54.8078 166.265 54.3548 166.969 53.7309 167.888 53.1784 168.674 52.3461 169.411 50.513 169.628 50.513 169.628 49.015 169.411 48.9945 168.618 48.9955 167.824 49.015 167.032 49.172 166.875 49.3291 166.718 49.4908 166.556 49.3571 162.35 48.0166 158.88 45.1782 155.73 41.4099 152.28 36.8708 150.889 31.8835 150.376 32.5486 148.631 33.3356 147.002 34.2034 145.35 36.7489 140.302 38.165 135.488 38.1294 129.824 38.1285 129.47 38.1275 129.117 38.1266 128.753 38.1047 125.95 37.9307 123.18 37.594 120.396 39.3946 121.245 40.9593 122.331 42.5851 123.473 45.4021 125.194 47.762 125.886 51.0079 125.839 51.3606 125.835 51.7132 125.831 52.0763 125.827 56.1321 125.703 59.8387 124.941 62.8748 122.091 64.9244 119.727 65.4769 117.649 65.4031 114.537 64.7421 110.479 61.7198 107.505 58.5324 105.168 53.8518 101.839 48.6419 99.2144 43.325 97.0596 42.9348 96.8983 42.5447 96.737 42.1428 96.5704 41.3866 96.2611 40.6259 95.9623 39.8608 95.6758 38.8513 95.2613 37.9942 94.8744 37.1181 94.223 36.4508 92.576 36.4508 92.576 36.1664 90.8918 35.1065 87.7525 33.748 85.5835 30.9318 83.7537 28.9412 83.0904 26.9897 83.2902 24.9174 83.3802 23.9703 83.4006 23.9703 83.4006 22.3661 83.2779 22.052 82.8067 21.7379 82.3356 21.4143 81.8503 19.2971 82.0425 17.4684 82.506 15.4603 83.2108-4.32302 89.8944-27.5936 91.3435-47.7606 85.9646-49.7602 85.4745-51.7213 85.2794-53.7737 85.1814-54.3619 85.1509-54.9501 85.12-55.5563 85.0886-56.1916 85.0681-56.8264 85.0495-57.4617 85.0329-58.048 85.0148-58.6348 84.9972-59.2386 84.9786-61.5799 85.2623-63.0133 86.2164-64.5499 87.9866-64.7331 88.2874-64.9163 88.5886-65.1052 88.8989-65.2951 89.1968-65.4845 89.4942-65.6801 89.8007-66.1464 90.8918-66.1464 90.8918-66.085 92.5036-66.6223 94.223-66.6223 94.223-67.7178 94.9715-69.2743 95.7377-70.8476 96.4172-72.4517 97.0782-73.591 97.576-74.7302 98.0747-75.8685 98.5748-76.4134 98.8099-76.9587 99.0455-77.5203 99.2877-83.6 101.95-89.7774 105.418-93.7471 110.879-93.8941 111.055-93.8941 111.055-94.6394 111.949-95.7096 114.565-95.5216 117.41-94.6693 120.069-92.4137 123.197-89.4642 125.324-85.6572 126.106-82.4889 126.321-79.3105 126.226-76.1398 126.106-76.1398 125.792-76.1398 125.478-76.1398 125.155-75.8747 125.051-75.6096 124.946-75.3365 124.839-72.8824 123.819-70.8847 122.635-68.8251 120.954-68.0499 120.396-68.0499 120.396-67.0982 120.396-67.0387 123.132-67.0387 123.132-67.574 124.203-68.266 133.128-67.2999 140.613-63.0475 148.508-62.4693 149.644-62.0906 150.561-61.8636 151.804-62.1919 151.874-62.5198 151.944-62.8581 152.015-67.5403 153.133-71.6018 155.246-74.2363 159.418-76.3301 163.599-76.9183 167.747-75.4854 172.237-75.1057 173.263-74.7088 174.176-74.1582 175.123-73.7604 176.073-73.7604 176.073-73.8161 177.053-74.3767 178.285-75.0757 178.69-76.1992 179.434-79.6936 182.014-82.0706 185.922-83.0994 190.141-83.8718 197.222-82.8543 202.863-78.6048 208.663-76.4005 211.322-73.9974 213.1-70.9052 214.619-70.5797 214.781-70.2537 214.943-69.9182 215.11-65.3122 217.005-59.4014 216.431-54.7255 215.095-54.4785 215.583-54.231 216.07-53.9764 216.572-53.6414 217.22-53.3059 217.868-52.9704 218.515-52.8091 218.836-52.6473 219.156-52.4808 219.487-51.41 221.538-50.2789 223.045-48.5391 224.612-48.225 224.907-47.9109 225.202-47.5874 225.506-43.2624 229.147-38.3469 230.224-32.7647 230.062-28.2573 229.532-23.9471 228.063-20.4626 225.088-19.1186 225.701-18.1585 226.354-17.1017 227.378-12.5444 231.403-6.95822 232.22-1.1072 231.881 5.14172 231.145 10.0581 227.614 14.2762 223.185 15.8724 223.636 17.461 224.087 19.0349 224.612 27.0899 225.01 33.1205 223.999 39.6165 218.812 43.2145 215.455 45.4345 211.392 46.6895 206.672 46.8288 206.311 46.968 205.95 47.1115 205.577 48.7323 205.037 48.9583 205.157 50.4721 205.756 52.8248 206.603 55.0957 206.855 57.5807 207.005 57.4446 207.67 57.3052 208.334 57.1643 208.998 57.1258 209.183 57.1258 209.183 56.9302 210.119 56.8307 210.505 56.7313 210.891 56.6289 211.288 56.5438 211.668 56.4586 212.047 56.3706 212.439 55.2708 214.388 53.4948 215.354 51.6618 216.582 48.9745 218.442 46.5397 220.278 44.286 222.649 40.5729 226.544 36.4978 228.712 31.4077 230.323 30.9777 230.495 30.5476 230.666 30.1046 230.843 28.0686 231.409 26.1926 231.395 24.0911 231.364 23.7046 231.364 23.3182 231.363 22.92 231.363 21.0492 231.349 19.2796 231.254 17.4344 230.938 15.7038 230.799 15.7038 230.799 14.6833 231.397 14.4213 231.69 14.1594 231.984 13.8896 232.286 11.7264 234.402 9.46874 235.436 6.66223 236.509 6.19725 236.697 5.73228 236.885 5.25322 237.078-1.24206 239.418-7.91701 239.08-14.2762 236.509-14.5903 236.352-14.9044 236.195-15.228 236.033-17.2153 235.842-19.2116 235.788-21.2061 235.706-21.4811 235.692-21.4811 235.692-22.8726 235.62-25.7043 235.502-28.1969 235.558-30.94 236.279-37.1586 237.794-43.1879 235.75-48.6267 232.86-50.2694 232.083-51.9635 231.521-53.6842 230.947-67.2685 226.328-79.5641 218.271-89.9401 208.433-90.5526 207.914-91.1669 207.399-91.7841 206.886-113.707 187.687-125.089 157.729-128.01 129.438-128.063 128.922-128.117 128.407-128.172 127.876-129.617 111.244-127.386 94.8521-122.299 78.995-122.248 78.8337-122.248 78.8337-121.986 78.0185-117.73 65.0971-110.736 52.9781-102.313 42.3527-101.93 41.8632-101.547 41.3737-101.153 40.8694-98.8603 37.9956-96.3915 35.386-93.7471 32.8353-93.3445 32.4329-92.9424 32.0304-92.5279 31.6158-92.1448 31.2331-91.7622 30.8503-91.3677 30.4559-91.243 30.3231-91.243 30.3231-90.613 29.651-80.9913 19.603-67.703 11.4725-54.6974 6.70125-53.4306 6.23523-52.1919 5.72861-50.948 5.20487-47.9928 4.02458-44.953 3.1815-41.8769 2.37937-41.499 2.28038-41.1211 2.18139-40.7318 2.07939-27.4772-1.34792-13.5665-2.21436 0 0Z" fill="#065E67" transform="matrix(1 0 0 1.01447 590.383 762.552)"/><path d="M0 0C0.211924 0.000512792 0.211924 0.000512792 1.28439 0.00310782 7.38822 0.026844 13.2709 0.222697 19.2431 1.57633 19.7116 1.67594 20.1801 1.77554 20.6629 1.87817 26.7479 3.17894 32.6381 4.60849 38.2781 7.28681 38.671 7.47155 39.0639 7.65623 39.4687 7.84658 49.3162 12.5186 58.2098 17.9311 66.2373 25.3421 67.1681 26.1951 68.1203 27.0024 69.0911 27.8089 71.0674 29.5252 72.8372 31.4306 74.6227 33.3409 74.9177 33.6562 75.2128 33.9717 75.5164 34.2966 76.6975 35.5732 77.7592 36.7667 78.7276 38.2186 78.57 39.359 78.1779 40.3032 77.7458 41.3713 76.776 44.8634 77.2366 48.118 78.2517 51.5428 77.9838 51.4743 77.7163 51.4058 77.4408 51.3349 74.2777 50.6363 71.2164 50.4997 67.9904 50.5021 67.5655 50.5016 67.1405 50.5016 66.7027 50.5011 63.6276 50.5273 63.6276 50.5273 62.5479 51.0669 61.717 51.2078 60.8833 51.3344 60.0495 51.4538 57.1553 51.9116 54.4147 52.6763 51.6175 53.5396 50.1752 53.9222 50.1752 53.9222 48.2717 53.9222 48.156 53.531 48.0409 53.1398 47.9219 52.7363 47.0614 49.8701 46.151 47.0695 45.0016 44.3064 44.4488 42.9387 43.9401 41.5597 43.4346 40.174 40.7126 32.751 37.0898 25.2159 29.7718 21.3083 28.494 20.7255 27.2063 20.1881 25.9054 19.6595 25.7523 19.5755 25.7523 19.5755 24.9778 19.1502 21.4029 17.5296 15.6519 17.5769 11.8968 18.7078 10.5015 19.252 9.18664 19.9321 7.85748 20.6187 7.51947 20.7923 7.18141 20.9659 6.83312 21.1448 6.15457 21.4975 5.47997 21.8579 4.80999 22.2266 3.50113 22.92 2.44264 23.4686 0.942453 23.4591-1.21838 22.6226-3.27573 21.5903-5.34706 20.5555-10.8342 17.8827-17.9928 17.7479-23.7937 19.6298-31.8937 22.974-37.338 29.8306-40.7169 37.7427-41.6437 40.3326-42.4907 42.9469-43.3342 45.5649-46.03 53.9112-46.03 53.9112-47.8548 57.7292-50.6429 57.0434-53.4225 56.3482-56.1826 55.5582-62.496 53.8375-68.5919 53.2441-74.9796 54.8739-75.3769 54.9667-75.7738 55.0595-76.1826 55.1547-79.231 55.9485-81.5247 57.2585-84.0212 59.1568-84.3448 59.3795-84.6679 59.6022-85.001 59.8316-89.1116 62.949-91.7156 68.4092-92.5869 73.433-93.4025 82.5474-90.592 91.1802-84.8059 98.2622-84.1021 99.0412-83.374 99.7388-82.5936 100.439-81.6418 101.51-81.6418 101.51-81.6718 102.699-81.9592 103.466-82.2709 104.224-82.6107 104.969-83.906 108.636-83.3473 112.728-81.7294 116.193-79.3776 120.455-75.4164 122.625-70.8975 124.073-68.9821 124.537-67.1258 124.521-65.1652 124.47-64.7811 124.468-64.3971 124.466-64.0012 124.463-61.7503 124.434-59.5927 124.245-57.3723 123.876-57.3547 124.007-57.3547 124.007-57.2642 124.674-55.9875 133.948-55.9875 133.948-54.517 138.152-54.3248 138.805-54.1358 139.459-53.9522 140.115-53.8246 140.566-53.6971 141.018-53.5653 141.483-54.143 141.91-54.7297 142.324-55.3203 142.733-55.6458 142.964-55.9718 143.196-56.3073 143.435-57.3723 143.862-57.3723 143.862-58.443 143.595-59.842 142.864-61.2202 142.103-62.595 141.328-75.6967 134.047-88.4044 132.635-103.056 132.917-103.286 131.351-103.513 129.785-103.74 128.218-103.805 127.782-103.868 127.345-103.935 126.895-106.078 112.047-105.302 97.0306-101.422 82.5317-101.189 81.6599-100.968 80.7848-100.75 79.9096-100.007 77.0035-98.9803 74.2924-97.8215 71.5295-97.5779 70.9204-97.3352 70.3108-97.093 69.7007-89.8425 51.5509-78.5372 35.1454-63.0827 22.9906-62.6192 22.614-62.1553 22.2373-61.6775 21.8493-57.466 18.4947-52.9918 15.6861-48.3307 12.9973-47.9971 12.8039-47.6635 12.6105-47.3194 12.4113-38.7721 7.51842-28.6623 3.1792-18.8267 2.0522-18.3262 1.90498-17.8257 1.75776-17.3099 1.60607-11.5944 0.0132254-5.8857-0.0255386 0 0Z" fill="#BBEADE" transform="matrix(1 0 0 1.01447 573.995 769.159)"/><path d="M0 0C0.314077 0 0.628153 0 0.951747 0 1.45907 0.566351 1.94077 1.1558 2.40911 1.75478 4.82731 4.60805 7.85367 6.39983 11.5994 6.77563 15.6697 6.8907 19.8461 6.17827 23.1096 3.56905 24.0758 2.57811 24.8767 1.58354 25.6972 0.475874 26.0112 0.475874 26.3253 0.475874 26.6489 0.475874 26.8053 0.849453 26.9618 1.22303 27.1229 1.60793 28.7161 5.12673 30.276 7.72471 33.787 9.51747 35.2765 9.94909 36.7279 10.2762 38.2595 10.5176 39.4975 10.9451 39.4975 10.9451 40.3173 11.9749 44.6112 21.5083 45.7718 35.87 42.2477 45.7194 37.9179 56.4162 29.9033 63.4373 19.5108 68.0499 7.03612 72.7587-7.74598 72.9833-20.0273 67.5188-28.6466 63.5382-34.5695 58.6034-39.4975 50.4426-39.7337 50.0866-39.9699 49.7312-40.2132 49.3643-43.6843 43.0203-44.2176 36.0945-43.7804 29.0283-43.7638 28.5707-43.7472 28.113-43.7302 27.6415-43.518 24.2118-42.5686 20.8668-41.6515 17.5678-41.4223 16.7331-41.2117 15.8933-41.0032 15.0532-40.0505 11.7582-40.0505 11.7582-38.5923 10.8689-37.5345 10.5287-37.5345 10.5287-36.4062 10.2722-32.1457 9.2752-29.2772 6.97055-27.0058 3.32925-26.5509 2.54735-26.1212 1.75085-25.6972 0.951747-25.5962 1.04376-25.5962 1.04376-25.0856 1.50941-20.9295 5.19963-16.9007 6.91097-11.2946 6.77934-7.53698 6.44114-4.67654 4.8946-1.90349 2.37937-1.25662 1.59631-0.616984 0.806825 0 0Z" fill="#F4E2CF" transform="matrix(1 0 0 1.01447 576.107 858.138)"/><path d="M0 0C0.485838 0.286472 0.971672 0.572942 1.47223 0.868098 5.04121 2.96275 7.7378 4.06713 11.8968 3.33111 14.2027 2.6379 16.1317 1.47674 18.1427 0.178453 21.0893-1.71041 24.1439-2.33841 27.6007-1.90349 31.53-0.994371 33.9211 0.987623 36.1664 4.28286 40.6357 11.688 45.6839 23.1084 45.6839 31.8835 30.4653 36.1799 30.4653 36.1799 24.3604 37.3784 23.2726 37.6033 22.1977 37.8655 21.1187 38.1294 14.6294 39.5983 8.20087 39.6897 1.57633 39.7057 1.34987 39.7071 1.34987 39.7071 0.203823 39.7145-6.17608 39.7411-12.283 39.2096-18.5591 38.0699-19.094 37.9749-19.6288 37.88-20.1799 37.7821-21.4077 37.5548-22.6305 37.3121-23.8532 37.0587-24.2562 36.9783-24.6592 36.8979-25.0744 36.8151-27.9461 36.2316-27.9461 36.2316-29.0283 35.6905-28.7569 32.8713-28.1658 30.3723-27.2735 27.6899-27.0143 26.8931-26.7553 26.0963-26.4965 25.2994-26.3638 24.894-26.2312 24.4887-26.0945 24.0711-25.7047 22.8652-25.3285 21.6558-24.9573 20.444-19.9617 4.15658-19.9617 4.15658-13.8003 0-13.6565-0.097842-13.6565-0.097842-12.9285-0.592981-8.65314-3.10945-4.20673-2.14667 0 0Z" fill="#35A198" transform="matrix(1 0 0 1.01447 566.113 801.655)"/><path d="M0 0C0.157038 0.235557 0.157038 0.235557 0.951747 1.42762 0.675702 1.67054 0.39966 1.91346 0.115251 2.16374-3.85688 5.86057-6.43881 9.86619-6.65295 15.3934-6.656 15.8099-6.65909 16.2264-6.66223 16.6556-6.68003 17.0574-6.69782 17.4592-6.71615 17.8731-6.78058 20.0477-6.57557 21.7679-5.94842 23.8532-5.67888 25.0428-5.67888 25.0428-5.71048 26.173-6.51471 27.3335-7.41787 28.1464-8.48578 29.0673-13.8492 33.8122-14.2289 41.4199-14.7521 48.0632-30.7653 34.8465-41.8106 10.3726-44.2562-9.99334-28.7271-11.2269-13.1926-9.09832 0 0Z" fill="#48B2A4" transform="matrix(1 0 0 1.01447 515.195 914.138)"/><path d="M0 0C1.04644 0.966656 1.71256 1.83119 2.31617 3.1192 2.47136 3.44808 2.62656 3.77695 2.78646 4.1158 2.94657 4.46537 3.10667 4.81494 3.27163 5.17512 3.43787 5.53512 3.60411 5.89512 3.77539 6.26606 8.38494 16.3547 8.38494 16.3547 6.90017 22.3066 6.81955 22.6362 6.73889 22.9658 6.65585 23.3055 6.4626 24.0947 6.26759 24.8836 6.07134 25.6721 5.38232 28.4458 4.70629 31.2227 4.03029 33.9996 3.78386 35.0091 3.53532 36.018 3.2865 37.0268 2.5221 40.144 1.8036 43.2572 1.19154 46.4088 0.593695 49.4723-0.134042 52.4903-0.905273 55.514-1.48925 57.8077-2.03971 60.109-2.58756 62.4118-2.68713 62.8301-2.7867 63.2488-2.88928 63.6795-3.19552 64.9677-3.50126 66.2559-3.80699 67.5445-4.01143 68.404-4.2159 69.2639-4.42042 70.1233-4.52066 70.5463-4.62089 70.9689-4.72416 71.4043-4.92429 72.2443-5.12625 73.0837-5.33012 73.9227-5.81265 75.9204-6.26102 77.9133-6.63239 79.9349-6.70534 80.306-6.77834 80.6772-6.85353 81.0593-6.98787 81.7503-7.11026 82.4437-7.21786 83.1394-7.48425 84.4618-7.77168 85.4245-8.8838 86.2378-10.4384 87.0087-12.0511 87.5641-13.7427 87.9529-18.1383 89.1092-22.8338 92.5274-25.5039 96.225-25.7247 96.5067-25.9455 96.7879-26.173 97.0782-26.4871 97.0782-26.8012 97.0782-27.1248 97.0782-27.6391 96.3035-28.1187 95.5054-28.5822 94.6988-31.456 90.0829-35.1529 87.5602-39.9734 85.1814-39.7673 84.6122-39.5612 84.0426-39.3488 83.4563-37.7899 78.7575-36.9344 73.9374-36.6423 69.0017-36.1123 69.1587-35.5823 69.3157-35.0362 69.4775-29.3494 70.7081-23.12 70.7296-18.0832 67.574-14.7144 65.0709-11.7695 62.3214-10.9451 58.0566-10.6517 54.1506-10.5615 50.868-12.8486 47.5874-12.9568 47.4276-12.9568 47.4276-13.5048 46.6189-14.0626 45.8195-14.6431 45.0361-15.228 44.2562-15.0083 44.0986-14.7887 43.9409-14.5625 43.7785-9.3561 39.6731-4.96455 32.749-3.80699 26.173-3.58458 23.9903-3.5064 21.823-3.47983 19.6298-3.47055 19.0947-3.46127 18.5596-3.45171 18.0084-3.52561 12.8171-5.16856 8.54583-8.45418 4.53195-9.0416 3.80699-9.0416 3.80699-9.51747 2.85524-9.14943 2.80862-8.78134 2.762-8.40212 2.71396-5.22633 2.25803-2.78088 1.60436 0 0Z" fill="#BAEADD" transform="matrix(1 0 0 1.01447 670.805 824.345)"/><path d="M0 0C0.249865-0.00123166 0.249865-0.00123166 1.51433-0.00746455 7.74313-0.0316428 13.8146 0.220618 19.9867 1.07072 20.2854 1.11024 20.2854 1.11024 21.7969 1.31028 24.949 1.73839 27.919 2.42994 30.9318 3.45008 31.0888 4.39231 31.2459 5.33454 31.4077 6.30532 16.1891 10.6017 16.1891 10.6017 10.0842 11.8002 8.99639 12.0251 7.92149 12.2873 6.84254 12.5512 0.353195 14.0201-6.07533 14.1115-12.6999 14.1275-12.9263 14.1289-12.9263 14.1289-14.0724 14.1363-20.4523 14.1629-26.5592 13.6314-32.8353 12.4917-33.3702 12.3967-33.905 12.3018-34.4561 12.2039-35.6839 11.9765-36.9068 11.7339-38.1294 11.4804-38.5324 11.4001-38.9354 11.3197-39.3506 11.2369-42.2223 10.6534-42.2223 10.6534-43.3045 10.1123-42.9476 6.48378-42.9476 6.48378-41.8769 4.8777-40.7674 4.46863-40.7674 4.46863-39.3822 4.14716-39.1283 4.0872-39.1283 4.0872-37.8431 3.78375-37.3094 3.66383-36.7757 3.5439-36.2259 3.42034-35.7106 3.29857-35.1953 3.17681-34.6644 3.05135-23.1836 0.386655-11.7371 0.0265529 0 0Z" fill="#70C9BA" transform="matrix(1 0 0 1.01447 580.389 827.603)"/><path d="M0 0C2.47675 2.34208 3.48443 5.073 3.59879 8.44676 3.29792 15.2163-0.29292 20.5148-4.59887 25.528-5.651 26.3218-5.651 26.3218-6.74218 26.3218-8.46465 25.6855-10.0642 24.8842-11.6886 24.0316-13.9095 22.878-16.0591 21.8499-18.4401 21.0574-19.5573 20.628-19.5573 20.628-20.4031 20.1354-21.0277 18.6483-21.0277 18.6483-21.3548 16.8043-24.064 10.453-24.064 10.453-26.5894 9.19031-27.58 9.14382-28.5721 9.12854-29.5636 9.13082-29.8299 9.1302-29.8299 9.1302-31.1771 9.12711-32.7026 9.1874-34.1332 9.38023-35.631 9.66618-35.474 9.98026-35.317 10.2943-35.1552 10.6179-37.0396 10.775-38.9241 10.932-40.8656 11.0938-41.3368 10.3086-41.8079 9.52342-42.2933 8.71443-42.0514 8.6135-42.0514 8.6135-40.8273 8.10275-39.0989 7.36143-37.435 6.5258-35.7686 5.65285-35.6228 5.5769-35.6228 5.5769-34.8854 5.19254-33.6553 4.55139-32.4267 3.90747-31.1981 3.26361-21.8548-1.62703-9.69949-7.36176 0 0Z" fill="#2F9B92" transform="matrix(1 0 0 1.01447 653.614 835.78)"/><path d="M0 0C6.76559-0.410994 13.7389 2.43491 19.9607 4.74573 20.4641 4.93248 20.9675 5.11921 21.4862 5.31165 25.0447 6.67513 25.0447 6.67513 25.5819 7.7497 25.2678 7.7497 24.9538 7.7497 24.6302 7.7497 24.7087 7.98525 24.7087 7.98525 25.106 9.17732 25.3416 9.25583 25.3416 9.25583 26.5337 9.65319 26.4551 10.0458 26.4551 10.0458 26.0578 12.0326 27.6282 12.0326 29.1986 12.0326 30.8165 12.0326 30.8165 12.1896 30.8165 12.3466 30.8165 12.5084 29.0891 12.5084 27.3617 12.5084 25.5819 12.5084 25.5819 12.1944 25.5819 11.8803 25.5819 11.5567 24.3609 11.5724 23.1439 11.6045 21.9236 11.6459 21.5804 11.6487 21.2372 11.6514 20.8836 11.6542 18.9843 11.7323 18.1466 11.8995 16.5775 13.0679 15.5116 14.5165 15.1994 15.52 14.845 17.2672 14.0386 19.8809 14.0386 19.8809 12.5642 20.8882 11.6116 21.2636 10.6465 21.6082 9.6736 21.9273 7.67931 22.6016 5.863 23.4837 3.98916 24.435 3.67247 24.5916 3.35579 24.7481 3.02951 24.9095 1.51422 25.6698 0.222119 26.4126-1.14507 27.4371-2.49462 28.2123-2.49462 28.2123-3.74379 27.9892-7.40878 25.6262-10.2799 20.8045-11.3485 16.6128-11.96 12.5438-12.0718 8.58757-9.95618 4.95394-7.38161 1.69678-3.96588 0.504369 0 0Z" fill="#2D9891" transform="matrix(1 0 0 1.01447 504.365 835.793)"/><path d="M0 0C1.16641 3.0402-0.780057 6.81299-1.84587 9.69778-4.13626 14.7818-8.66328 18.5244-13.7873 20.5444-17.5997 21.5872-21.6652 21.2343-25.2213 19.5108-27.3967 18.0152-27.3967 18.0152-28.0765 16.6556-28.2707 14.9083-28.2222 14.0413-27.3032 12.5214-24.5171 9.80856-20.8375 9.13534-17.072 8.92263-11.5203 8.35001-6.60731 5.35006-2.37937 1.90349-1.93892 1.55139-1.49848 1.19928-1.04469 0.836495-0.699943 0.56045-0.355195 0.284409 0 0Z" fill="#CAA683" transform="matrix(1 0 0 1.01447 528.043 865.862)"/><path d="M0 0C1.59312 0.709261 2.78028 1.63813 4.10441 2.76601 9.10988 6.78934 14.5403 8.08923 20.6931 9.39293 23.5898 10.0378 25.6516 10.5307 27.6007 12.8486 28.136 14.5141 28.136 14.5141 28.0765 16.1797 26.8888 18.3078 25.0635 19.5384 22.8419 20.4626 21.3562 20.7462 19.9202 20.7804 18.4104 20.76 18.2101 20.758 18.2101 20.758 17.1967 20.7479 13.8334 20.6255 11.6153 19.8241 9.0416 17.6073 8.65638 17.2981 8.27111 16.989 7.87423 16.6704 4.73419 14.0369 2.87879 11.5806 1.84401 7.55449 1.36236 5.70353 0.868074 4.07745 0 2.37937-0.0594842 1.07072-0.0594842 1.07072 0 0Z" fill="#CCA783" transform="matrix(1 0 0 1.01447 623.218 865.862)"/><path d="M0 0C0.294447 0.314077 0.588893 0.628153 0.892263 0.951747 9.26255 9.22904 20.9909 14.7859 32.8353 15.228 33.2958 15.2474 33.7563 15.2669 34.2308 15.287 49.1577 15.825 63.7652 12.9073 75.0652 2.4816 75.2627 2.29083 75.4602 2.10005 75.6639 1.90349 75.6639 4.53771 73.1346 6.27948 71.381 8.08985 71.0665 8.42234 70.7514 8.75479 70.4274 9.09737 61.5904 17.7097 48.9636 19.6871 37.1721 19.6549 24.3364 19.4626 12.9009 15.1196 3.84788 5.8443 0 1.63615 0 1.63615 0 0Z" fill="#EDD7BF" transform="matrix(1 0 0 1.01447 537.561 916.552)"/><path d="M0 0C1.65066 0.112545 2.76553 0.427118 4.22338 1.21943 6.34606 2.19587 8.28881 2.31226 10.4897 1.58005 11.125 1.322 11.7589 1.06057 12.3913 0.795603 13.8286 0.303144 15.1577 0.353596 16.6556 0.475874 17.1314 0.951747 17.1314 0.951747 17.1909 2.46859 16.5007 4.8078 15.5017 5.31727 13.4787 6.53769 12.485 7.07714 11.4856 7.59447 10.4692 8.08985 10.4307 8.94209 10.403 9.79486 10.38 10.6477 10.3634 11.1224 10.3469 11.5973 10.3298 12.0864 10.3758 12.495 10.4218 12.9035 10.4692 13.3245 12.2398 14.5048 13.0258 14.3894 15.0643 14.1312 16.6772 13.6527 17.5801 12.6893 18.7617 11.5325 19.5108 10.9451 19.5108 10.9451 20.9087 11.0046 21.0706 11.0733 21.0706 11.0733 21.8902 11.421 21.8902 14.2697 21.8902 14.2697 20.602 15.5756 18.2663 17.3306 16.3132 18.6963 13.3245 18.678 12.9221 18.6805 12.5197 18.6829 12.105 18.6855 10.8726 18.5512 10.1326 18.1664 9.0416 17.6073 7.62573 17.7489 6.50881 17.922 5.23461 18.5591 1.98515 18.9275-0.659832 18.6092-3.33111 16.6556-4.44499 15.6491-5.48573 14.6612-6.18636 13.3245-6.02089 12.2686-6.02089 12.2686-5.71048 11.421-4.86657 11.0975-4.86657 11.0975-3.80699 10.9451-2.92588 11.5065-2.92588 11.5065-2.08195 12.3132-0.615742 13.6898-0.00310302 14.2496 2.08195 14.3654 4.49409 14.2407 4.49409 14.2407 5.71048 13.3245 6.00048 11.9824 6.00048 11.9824 6.06739 10.4097 6.09437 9.88832 6.12135 9.3669 6.14919 8.82969 6.16147 8.42848 6.1737 8.02732 6.18636 7.61398 5.77411 7.57472 5.36191 7.53546 4.93719 7.49501 3.07817 7.0819 1.98761 6.3768 0.475874 5.23461 0.181427 5.0187-0.11302 4.80275-0.416389 4.58028-1.25141 3.37414-1.10294 2.37299-0.951747 0.951747-0.637671 0.637671-0.323594 0.323594 0 0Z" fill="#3F3F3F" transform="matrix(1 0 0 1.01447 568.968 899.655)"/><path d="M0 0C1.97672 1.25977 3.46383 3.03274 4.28286 5.23461 4.38681 6.50629 4.4374 7.71182 4.43157 8.98211 4.43924 9.31275 4.44691 9.64339 4.45481 9.98406 4.45727 12.5989 3.92048 14.5359 2.14143 16.4864-0.204821 18.3133-1.78094 18.8114-4.75874 18.5591-7.40045 17.2911-8.71867 15.403-9.99334 12.8486-10.38 11.6589-10.38 11.6589-10.4692 10.4692-10.5183 9.87052-10.5673 9.27178-10.6179 8.65495-10.5794 6.38127-9.79633 4.73598-8.56572 2.85524-8.38047 2.56693-8.19521 2.27862-8.00434 1.98157-5.93881-0.621724-3.09885-0.701081 0 0Z" fill="#3D3D3D" transform="matrix(1 0 0 1.01447 551.837 881.31)"/><path d="M0 0C2.12263 1.12906 3.57642 2.93016 4.28286 5.23461 4.70968 9.10617 4.89341 13 2.37937 16.1797 1.29563 17.5171 0.232328 18.4154-1.51127 18.7691-3.349 18.8649-4.60135 18.6256-6.30532 17.9047-8.93362 15.3959-10.1277 12.6125-10.261 8.98211-10.0985 5.56011-9.06311 3.51881-6.87042 0.951747-4.5674-0.388192-2.60448-0.422134 0 0Z" fill="#3E3E3E" transform="matrix(1 0 0 1.01447 607.038 881.31)"/><path d="M0 0C-0.0747531 2.44816-0.1695 4.97554-1.42762 7.1381-3.54635 8.44761-5.70325 9.02156-8.08614 9.68503-12.0328 10.9587-16.4108 14.3397-18.8416 17.7058-19.0624 17.9874-19.2833 18.269-19.5108 18.5591-19.8249 18.5591-20.139 18.5591-20.4626 18.5591-21.2507 17.4642-21.2507 17.4642-22.1281 16.031-22.4176 15.5617-22.7072 15.0924-23.0055 14.6089-23.2656 14.1851-23.5257 13.7612-23.7937 13.3245-24.1078 12.8533-24.4218 12.3822-24.7454 11.8968-18.8459 7.11455-12.9634 3.40919-5.71048 0.951747-5.36633 0.834582-5.02223 0.717417-4.66765 0.596703-3.06424 0.0945546-1.66949-0.0310209 0 0Z" fill="#48B1A5" transform="matrix(1 0 0 1.01447 664.143 904)"/><path d="M0 0C1.04644 0.966656 1.71256 1.83119 2.31617 3.1192 2.39376 3.28364 2.39376 3.28364 2.78646 4.1158 2.86651 4.29059 2.86651 4.29059 3.27163 5.17512 3.43787 5.53512 3.60411 5.89512 3.77539 6.26606 6.46617 12.1553 8.36086 16.5815 6.72171 23.0799 6.63891 23.4228 6.55611 23.7657 6.47079 24.119 5.95123 26.2471 5.37295 28.3533 4.75874 30.4559 4.058 29.1319 3.54907 27.8449 3.1192 26.411 2.99153 25.9935 2.86386 25.5759 2.73232 25.1457 2.59622 24.6995 2.46011 24.2534 2.31988 23.7937 0.231941 17.0926-2.28784 10.5662-5.32383 4.23453-5.71048 3.33111-5.71048 3.33111-5.71048 2.37937-5.37799 2.24748-5.04554 2.11559-4.70297 1.97971-4.26988 1.80733-3.83681 1.63496-3.3906 1.45736-2.95997 1.28621-2.52934 1.11507-2.08566 0.938737-0.951747 0.475874-0.951747 0.475874 0 0Z" fill="#085E66" transform="matrix(1 0 0 1.01447 670.805 824.345)"/><path d="M0 0C0.227989-0.000791949 0.227989-0.000791949 1.38175-0.00479971 2.33876-0.00719535 3.29576-0.00832565 4.25277-0.00824879 5.7199-0.00929719 7.18688-0.0179759 8.654-0.0269538 9.58624-0.0283487 10.5185-0.0292941 11.4507-0.0297421 11.67-0.0314518 11.67-0.0314518 12.7801-0.0401039 13.1869-0.0386398 13.5937-0.0371757 14.0128-0.0356673 14.3701-0.0363454 14.7275-0.0370235 15.0956-0.0377222 16.0366 0.079932 16.0366 0.079932 17.4642 1.03168 10.1452 2.88837 2.9946 3.12453-4.51522 3.11363-4.98363 3.11432-5.45204 3.11501-5.93462 3.11572-10.9015 3.11489-15.7404 3.09443-20.6057 1.98343-20.4487 1.66935-20.2916 1.35527-20.1298 1.03168-19.9668 1.02572-19.9668 1.02572-19.1418 0.995546-17.6469 0.939903-16.1521 0.881713-14.6573 0.823485-14.4009 0.814129-14.4009 0.814129-13.1033 0.766789-12.6002 0.74685-12.0972 0.726916-11.579 0.706377-11.1205 0.688932-10.6619 0.671486-10.1895 0.653512-9.10022 0.581632-8.01395 0.461004-6.93234 0.313454-4.6218 0.0128083-2.3273 0.00284057 0 0Z" fill="#3EA99E" transform="matrix(1 0 0 1.01447 571.967 838.746)"/><path d="M0 0C0.294447 0.314077 0.588893 0.628153 0.892263 0.951747 4.55209 4.60115 8.1856 7.69031 13.5029 7.94114 13.7992 7.9568 13.7992 7.9568 15.2986 8.03593 15.7464 8.05373 16.1942 8.07153 16.6556 8.08985 16.6556 8.24689 16.6556 8.40393 16.6556 8.56572 16.4461 8.57738 16.4461 8.57738 15.3859 8.63634 15.1096 8.65414 15.1096 8.65414 13.7111 8.74418 13.1645 8.7773 12.618 8.81042 12.0548 8.84454 10.2022 9.07477 8.79157 9.64248 7.1381 10.4692 6.81665 10.2343 6.49525 9.99934 6.16404 9.75726 5.73956 9.45237 5.31508 9.14753 4.8777 8.8334 4.45812 8.52975 4.03853 8.22609 3.60623 7.91325 2.37937 7.1381 2.37937 7.1381 0.475874 6.66223 0.318835 4.46369 0.161797 2.26516 0 0Z" fill="#ECE0CF" transform="matrix(1 0 0 1.01447 627.025 878.414)"/><path d="M0 0C0.490697 1.5557 0.458694 2.78881 0.267679 4.40183 0.219218 4.82631 0.170757 5.25084 0.120827 5.68816 0.0809542 6.00962 0.0410813 6.33107 0 6.66223-0.157038 6.34815-0.314077 6.03408-0.475874 5.71048-0.802832 5.95646-1.12979 6.20244-1.46666 6.45589-1.89545 6.76935-2.32423 7.08281-2.76601 7.40578-3.19112 7.72048-3.61623 8.03517-4.05422 8.35939-4.44375 8.58452-4.83326 8.80966-5.23461 9.0416-5.70572 8.88456-6.17684 8.72752-6.66223 8.56572-6.66223 8.25165-6.66223 7.93757-6.66223 7.61398-7.91854 7.61398-9.17484 7.61398-10.4692 7.61398-10.4692 7.45694-10.4692 7.2999-10.4692 7.1381-10.0527 7.01295-9.6362 6.88784-9.20706 6.75888-5.50029 5.42672-2.27696 3.21915 0 0Z" fill="#EBD8C1" transform="matrix(1 0 0 1.01447 523.76 878.897)"/><path d="M0 0C0.892263 0.535358 0.892263 0.535358 1.42762 1.42762 1.62965 3.01019 1.57712 3.96726 0.892263 5.41306 0 6.18636 0 6.18636-1.42762 6.42429-2.85524 6.18636-2.85524 6.18636-3.7475 5.41306-4.43236 3.96726-4.48489 3.01019-4.28286 1.42762-3.2316-0.32449-1.91227-0.239034 0 0Z" fill="#EFEFEF" transform="matrix(1 0 0 1.01447 551.837 884.69)"/><path d="M0 0C1.45736 0.14871 1.45736 0.14871 2.34963 0.654326 3.19084 2.10309 3.06022 3.27192 2.88498 4.90745 2.37937 5.85919 2.37937 5.85919 1.45736 6.33507-0.237937 6.27558-0.237937 6.27558-1.87375 5.85919-2.8255 4.43157-2.8255 4.43157-2.70653 2.73627-2.26925 0.732046-2.06863 0.220067 0 0Z" fill="#EFEFEF" transform="matrix(1 0 0 1.01447 605.581 884.539)"/><path d="M0 0C0.333706 0.343521 0.667413 0.687042 1.01123 1.04097 2.34497 2.37853 3.77017 3.56675 5.23461 4.75874 4.61002 5.94842 4.61002 5.94842 3.80699 7.1381 2.37937 7.1381 2.37937 7.1381 0.475874 6.66223 0.318835 4.46369 0.161797 2.26516 0 0Z" fill="#EDD6BD" transform="matrix(1 0 0 1.01447 627.025 878.414)"/><path d="M0 0C0.596869 0.00429402 1.19374 0.00858804 1.80869 0.0130122 2.26202 0.018533 2.71534 0.0240539 3.1824 0.0297421 2.70653 1.45736 2.70653 1.45736 1.27891 2.40911-1.24533 2.73606-3.50118 2.42475-5.85919 1.45736-5.85919 1.14329-5.85919 0.82921-5.85919 0.505616-3.88134 0.0253332-2.03143-0.0189854 0 0Z" fill="#127577" transform="matrix(1 0 0 1.01447 582.441 805.487)"/><path d="M0 0C0.157038 0.471115 0.314077 0.94223 0.475874 1.42762 1.4181 1.42762 2.36033 1.42762 3.33111 1.42762 3.17408 1.50614 3.17408 1.50614 2.37937 1.90349 2.05992 2.53689 1.74307 3.17159 1.42762 3.80699 0.893191 4.49771 0.336814 5.17189-0.237937 5.82945-0.527477 6.16561-0.817013 6.50176-1.11533 6.84811-1.90349 7.61398-1.90349 7.61398-2.85524 7.61398-2.40913 6.13839-1.96494 4.85953-1.15994 3.53931-0.450007 2.33551-0.196265 1.37385 0 0Z" fill="#E7DBCA" transform="matrix(1 0 0 1.01447 638.922 932.966)"/><path d="M0 0C0.157038 0.471115 0.314077 0.94223 0.475874 1.42762-1.72266 3.62616-3.9212 5.82469-6.18636 8.08985-6.65747 7.93281-7.12859 7.77577-7.61398 7.61398-5.10136 5.10136-2.58875 2.58875 0 0Z" fill="#AAE1D6" transform="matrix(1 0 0 1.01447 505.201 797.31)"/><path d="M0 0C1.1657 0.466279 1.78763 0.768807 2.46859 1.84401 2.83781 2.80964 3.11464 3.74851 3.33111 4.75874 1.70828 4.38424 0.148067 3.86828-1.42762 3.33111-0.956506 3.01704-0.485391 2.70296 0 2.37937 0.0892263 1.1302 0.0892263 1.1302 0 0Z" fill="#4B4B4B" transform="matrix(1 0 0 1.01447 550.885 881.31)"/><path d="M0 0C0.314077 0.157038 0.628153 0.314077 0.951747 0.475874 0.794709 0.711431 0.794709 0.711431 0 1.90349-0.0687042 2.05563-0.0687042 2.05563-0.416389 2.8255-1.0595 4.00454-1.87801 4.79838-2.85524 5.71048-3.32636 5.55344-3.79747 5.39641-4.28286 5.23461-2.86952 3.50719-1.45617 1.77977 0 0Z" fill="#196B74" transform="matrix(1 0 0 1.01447 674.612 774.138)"/></g></svg>